<?xml version="1.0" standalone="no"?>
<!DOCTYPE svg PUBLIC "-//W3C//DTD SVG 20010904//EN"
 "http://www.w3.org/TR/2001/REC-SVG-20010904/DTD/svg10.dtd">
<svg version="1.0" xmlns="http://www.w3.org/2000/svg"
 width="421.000000pt" height="421.000000pt" viewBox="0 0 421.000000 421.000000"
 preserveAspectRatio="xMidYMid meet">
<g transform="translate(0.000000,421.000000) scale(0.100000,-0.100000)"
fill="#000000" stroke="none">
<path d="M1897 3513 c-180 -29 -357 -125 -510 -277 -84 -84 -136 -145 -137
-159 0 -5 -12 -25 -27 -44 -16 -20 -27 -39 -27 -42 1 -3 -7 -24 -19 -46 -11
-22 -20 -42 -20 -45 0 -3 -1 -9 -3 -15 -30 -93 -42 -153 -49 -260 -10 -131 -8
-190 8 -227 9 -21 19 -58 23 -83 5 -38 3 -48 -12 -60 -11 -8 -14 -15 -9 -15 6
0 4 -4 -3 -8 -54 -35 -10 -460 54 -513 9 -7 35 -12 59 -10 l44 2 14 -48 c32
-104 123 -303 139 -303 4 0 8 -6 8 -13 0 -7 8 -22 18 -33 9 -10 29 -38 44 -60
32 -50 188 -210 243 -250 22 -16 46 -35 53 -42 7 -6 18 -12 23 -12 6 0 17 -7
26 -15 8 -8 19 -13 24 -10 5 4 9 1 9 -5 0 -6 4 -9 9 -5 5 3 12 1 15 -4 7 -10
94 -41 136 -49 14 -3 59 -5 100 -5 87 0 219 40 311 93 120 70 276 204 349 299
14 18 35 44 47 59 13 15 23 33 23 40 0 6 4 12 8 12 5 0 19 21 32 48 13 26 26
49 29 52 10 7 42 84 40 94 -2 17 30 27 50 16 47 -25 110 39 137 140 2 8 11 40
19 70 16 54 19 67 31 113 3 12 8 52 11 88 6 77 -15 139 -48 139 -11 0 -19 3
-19 6 0 7 20 45 32 58 40 49 48 60 49 68 2 12 6 27 9 33 1 3 3 8 4 13 1 4 4
12 8 18 4 6 10 26 13 44 3 18 8 37 11 41 15 26 23 233 11 325 -9 78 -51 196
-90 258 -7 11 -27 44 -45 73 -18 29 -69 89 -115 134 -102 101 -111 109 -125
109 -7 0 -12 3 -12 8 0 7 -58 43 -64 39 -2 -1 -13 6 -23 16 -11 9 -22 15 -25
12 -3 -3 -11 1 -18 10 -7 8 -20 15 -29 15 -9 0 -22 5 -29 12 -7 7 -12 8 -12 4
0 -5 -6 -4 -13 2 -7 6 -45 20 -84 31 -98 27 -203 24 -262 -7 -43 -23 -44 -23
-57 -4 -13 19 -88 59 -128 69 -77 18 -172 20 -259 6z"/>
</g>
</svg>
